<?xml version="1.0" encoding="utf-8"?>
<!-- Generator: Adobe Illustrator 16.0.3, SVG Export Plug-In . SVG Version: 6.00 Build 0)  -->
<!DOCTYPE svg PUBLIC "-//W3C//DTD SVG 1.1//EN" "http://www.w3.org/Graphics/SVG/1.1/DTD/svg11.dtd">
<svg version="1.1" id="PILLS" xmlns="http://www.w3.org/2000/svg" xmlns:xlink="http://www.w3.org/1999/xlink" x="0px" y="0px"
	 width="200px" height="136px" viewBox="0 0 200 136" enable-background="new 0 0 200 136" xml:space="preserve">
<g id="DET">
	<path fill="#B0B7BC" d="M200,128c0,4.418-3.582,8-8,8H8c-4.418,0-8-3.582-8-8V8c0-4.418,3.582-8,8-8h184c4.418,0,8,3.582,8,8V128z"
		/>
	<g>
		<path fill="none" d="M13.894,121.214c0.289-2.305,0.405-6.159,0.405-6.159S5.632,112.657,0,107.65v20.75c0,4.418,3.582,7.6,8,7.6
			h3.033c0.661,0,1.25-1.988,1.651-3.41C13.55,129.538,13.608,123.52,13.894,121.214z"/>
		<path fill="none" d="M198.27,118.869c0,0-1.535,2.061-5.511,2.691c-3.975,0.633-6.821-1.562-6.821-1.562s-3.141,0.354-7.401-0.973
			c-4.265-1.326-7.185-5.688-7.185-5.688s-2.778-1.336-7.902-1.568c-5.126-0.228-16.583-2.533-21.684-5.498
			c0,0-2.992,1.443-12.08,1.916c0,0-1.348-4.104-3.979-6.164c0,0-7.814,4.332-10.287,5.483c-2.479,1.152-7.062,3.147-11.048,3.39
			c0,0-1.046,6.519-2.948,10.027c-1.896,3.514-5.546,6.125-8.647,7.153c0,0,4.503,1.401,6.863,4.914
			c0.704,1.049,1.267,2.008,1.67,3.008H192c4.418,0,8-3.183,8-7.601v-9.869C199.014,118.833,198.27,118.869,198.27,118.869z"/>
		<path fill="none" d="M8.712,80.5c1.382,5.471,3.117,12.113,14.114,14.52c0,0,6.503-6.514,8.977-8.127
			c2.477-1.613,5.587-2.525,6.48-2.787c0.891-0.265,5.076-1.625,5.076-1.625s6.574-5.358,7.644-6.434c0,0,2.454-4.357,4.009-6.891
			C56.566,66.621,59,64.104,59,64.104s-3.19-5.924-3.015-12.415c0,0,1.571,0.708,2.977,0.911c0,0-0.091-4.807,3.02-9.243
			c3.107-4.435,6.248-7.215,6.248-7.215s-0.236-5.842,3.294-11.378c0,0-2.69-4.325-2.921-7.09c0,0,4.494-0.402,7.892-1.382
			c3.396-0.978,5.066-1.67,6.794-3.743c1.726-2.074,5.875-7.141,11.111-9.619c3.426-1.617,7.095-2.562,10.393-2.93H8
			C3.582,0,0,3.582,0,8v56.433c0.361,0.37,0.715,0.753,1.055,1.153C5.312,70.595,7.329,75.029,8.712,80.5z"/>
		<path fill="none" d="M188.677,76.93c0,0-3.003,0.584-5.274,0.581c-2.275-0.004-5.461-0.979-6.432-1.44
			c0,0-2.707,3.959-3.451,4.916c0,0,3.689,3.203,7.723,4.47c4.029,1.265,7.199,1.842,9.041,3.167
			c1.84,1.327,2.537,2.621,2.537,2.621s2.818-0.434,5.525,0.199c0.537,0.125,1.092,0.312,1.653,0.551V75.986
			c-0.585,0.438-1.249,0.842-2,1.174C193.971,78.948,188.677,76.93,188.677,76.93z"/>
		<path fill="none" d="M158.988,7.27c0,0,3.535,1.362,6.244,3.263c2.707,1.901,4.268,6.486,4.268,6.486s5.119,2.037,10.417,5.262
			c5.297,3.225,11.8,10.025,11.8,10.025s-4.097,1.798-7.574,6.828c0,0-1.609,5.585-4.24,8.333c0,0,3.24-2.785,6.635-2.726
			c3.398,0.059,5.756,1.194,7.023,2.555c0,0,2.709-0.365,5.648,0.443c0.254,0.07,0.52,0.156,0.79,0.249V8c0-4.418-3.582-8-8-8
			h-41.192c0.731,0.268,1.414,0.548,2.045,0.859C156.137,2.471,158.447,5.445,158.988,7.27z"/>
		<path d="M156.02,9.932c0,0,4.1,1.724,5.709,2.6c1.607,0.876,3.262,2.971,3.601,3.847c0.341,0.877,0.679,1.958,1.094,2.636
			c0.417,0.677,1.149,1.164,1.832,1.406c0.681,0.244,7.448,3.264,10.565,5.602c3.117,2.34,7.356,6.38,7.356,6.38
			s-4.229,3.368-5.257,4.922c0,0-1.518,4.234-3.562,7.254c-2.047,3.02-5.357,4.197-5.357,4.197v1.019c0,0,2.629-0.052,4.723,0.533
			c2.096,0.586,3.545,1.278,3.545,1.278s1.607-0.984,2.387-1.667c0.781-0.681,3.15-1.898,5.242-1.558
			c2.095,0.34,3.59,1.83,3.972,2.474c0,0,1.8,0.106,3.456,0.01c1.121-0.066,2.896,0.181,4.677,0.952v-3.831
			c-0.271-0.093-0.536-0.179-0.79-0.249c-2.941-0.808-5.648-0.443-5.648-0.443c-1.268-1.361-3.625-2.496-7.023-2.555
			c-3.395-0.059-6.635,2.726-6.635,2.726c2.631-2.748,4.24-8.333,4.24-8.333c3.478-5.029,7.574-6.828,7.574-6.828
			s-6.502-6.8-11.8-10.025c-5.298-3.225-10.417-5.262-10.417-5.262s-1.561-4.585-4.268-6.486c-2.709-1.9-6.244-3.263-6.244-3.263
			c-0.543-1.825-2.854-4.799-6.137-6.411c-0.631-0.311-1.312-0.591-2.045-0.859h-11.287c3.484,1.275,7.267,2.517,8.912,3.033
			C150.916,3.812,155.134,5.435,156.02,9.932z"/>
		<path d="M196.157,74.096c-3.263,1.073-7.357-0.937-7.357-0.937s-3.842,0.937-6.62,0.743c-2.775-0.196-5.81-2.537-5.81-2.537
			s-0.667,0.394-1.302,1.316c-0.631,0.926-5.414,7.627-6.528,8.805c0,0,4.677,4.543,9.308,6.44c4.625,1.9,6.965,2.193,8.182,2.533
			c1.218,0.341,3.895,1.853,4.869,4.774c0,0,2.973-0.73,4.922-0.588c1.27,0.097,2.521,0.303,4.181,1.4v-4.055
			c-0.562-0.238-1.117-0.426-1.653-0.551c-2.709-0.631-5.524-0.199-5.524-0.199s-0.697-1.294-2.538-2.621
			c-1.842-1.324-5.012-1.902-9.041-3.167c-4.033-1.267-7.723-4.47-7.723-4.47c0.744-0.957,3.451-4.916,3.451-4.916
			c0.971,0.461,4.156,1.437,6.432,1.44c2.271,0.003,5.275-0.582,5.275-0.582s5.293,2.019,9.322,0.231
			c0.751-0.332,1.415-0.736,2-1.174v-5.383C199.268,71.876,198.018,73.484,196.157,74.096z"/>
		<path d="M17.174,126.986c0.097-2.875,0.45-12.221,1.078-14.756c0,0-12.085-2.681-17.541-8.916
			c-0.247-0.282-0.481-0.562-0.71-0.838v5.174c5.632,5.007,14.299,7.406,14.299,7.406s-0.116,3.854-0.405,6.158
			c-0.286,2.305-0.344,8.324-1.21,11.375c-0.4,1.422-0.99,3.41-1.651,3.41h4.216c0.008,0,0.017,0.159,0.024,0.137
			C16.248,133.411,17.077,129.861,17.174,126.986z"/>
		<path d="M55.162,131.227c-0.634-0.438-2.666-1.635-2.666-1.635S50.515,134,49.128,136h3.552c1.144-1,2.608-2.98,2.821-3.368
			C55.747,132.191,55.795,131.662,55.162,131.227z"/>
		<path d="M92.777,128.079c3.102-1.028,6.751-3.64,8.647-7.153c1.902-3.51,2.948-10.027,2.948-10.027
			c3.985-0.24,8.569-2.236,11.048-3.39c2.473-1.153,10.287-5.483,10.287-5.483c2.63,2.061,3.979,6.164,3.979,6.164
			c9.088-0.473,12.08-1.916,12.08-1.916c5.102,2.966,16.558,5.271,21.684,5.498c5.123,0.232,7.902,1.568,7.902,1.568
			s2.92,4.362,7.185,5.688c4.261,1.326,7.401,0.973,7.401,0.973s2.847,2.195,6.821,1.562c3.976-0.631,5.511-2.691,5.511-2.691
			s0.744-0.037,1.73-0.339v-3.991c-1.629,0.988-3.443,0.783-3.443,0.783s-0.935,1.777-3.369,2.509
			c-2.436,0.731-5.065-0.541-6.283-1.511c0,0-5.016,0.438-8.279-1.166c-3.262-1.606-4.793-4.76-4.793-4.76
			s-5.533-2.252-11.277-2.306c-5.746-0.047-16.875-3.153-20.516-5.812c0,0-5.542,2.514-10,2.58c0,0-1.367-4.17-6.199-7.069
			c0,0-10.334,5.726-14.035,7.428c-3.699,1.703-10.214,2.321-11.168,2.427c0,0,0.405,1.568-0.082,4.103
			c-0.488,2.53-2.045,7.5-3.362,9.153c-1.313,1.654-4.967,3.705-7.109,4.483c-2.144,0.778-4.819,1.462-7.063,2.581
			c-2.24,1.119-4.967,3.396-6.159,4.475c0,0,3.444,0.871,4.483,0.828c1.044-0.041,2.896-1.063,4.258-1.603
			c1.365-0.535,5.211-1.464,8.28,0.821c1.513,1.131,2.669,2.517,3.442,3.517h3.989c-0.405-1-0.967-1.959-1.671-3.008
			C97.281,129.479,92.777,128.079,92.777,128.079z"/>
		<path d="M12.713,94.646c4.119,2.875,8.957,4.09,11.479,4.261c0,0,7.104-7.427,9.539-9.034c2.434-1.607,5.165-2.243,6.331-2.582
			c1.173-0.34,5.216-1.677,5.216-1.677s7.173-6.181,8.553-7.243c0,0,4.155-7.201,5.326-8.906c1.169-1.703,4.308-5.714,4.308-5.714
			s-2.878-3.275-2.84-7.523c0,0,1.697,0.331,2.768,0.234c0,0-1.413-2.387-0.731-5.747c0.683-3.36,4.328-8.823,9.201-13.007
			c0,0-0.19-3.552,0.834-6.913c1.023-3.36,3.103-6.048,3.103-6.048s-2.229-2.75-2.569-4.903c0,0,4.188-0.396,7.112-1.371
			c2.923-0.974,5.26-3.048,5.26-3.048s5.6-7.715,12.419-10.15c6.819-2.436,13.77-1.689,13.77-1.689s3.457-2.241,4.875-2.736
			c0,0-0.313-0.352-0.81-0.85H104.79c-3.298,0.368-6.967,1.312-10.393,2.93c-5.236,2.478-9.385,7.545-11.111,9.619
			c-1.728,2.073-3.398,2.765-6.794,3.743c-3.398,0.979-7.892,1.382-7.892,1.382c0.231,2.765,2.921,7.09,2.921,7.09
			c-3.53,5.537-3.294,11.378-3.294,11.378s-3.141,2.781-6.248,7.215c-3.111,4.436-3.02,9.243-3.02,9.243
			c-1.405-0.202-2.977-0.911-2.977-0.911C55.809,58.18,59,64.104,59,64.104s-2.434,2.517-3.987,5.051
			c-1.556,2.534-4.009,6.891-4.009,6.891c-1.07,1.075-7.644,6.433-7.644,6.433s-4.185,1.362-5.076,1.625
			c-0.893,0.263-4.004,1.176-6.48,2.787c-2.474,1.615-8.977,8.129-8.977,8.129C11.829,92.611,10.094,85.971,8.712,80.5
			c-1.383-5.471-3.399-9.905-7.657-14.914c-0.34-0.4-0.694-0.783-1.055-1.153v5.706c3.33,4.637,4.442,8.897,5.191,11.846
			C6.021,85.248,8.596,91.771,12.713,94.646z"/>
		<path fill="#FFFFFF" d="M10.399,97.439c4.946,4.094,12.256,5.049,15.397,5.271c0.124-0.169,0.25-0.338,0.384-0.513
			c2.198-2.848,8.795-9.053,10.734-9.958c1.941-0.905,9.704-2.849,10.607-3.751c0.909-0.905,8.539-6.987,9.185-7.893
			c0.647-0.906,4.141-7.115,6.212-10.22c2.068-3.105,7.244-8.797,7.244-8.797s-4.391-0.131-5.552-2.071c0,0,4.795-2.112,5.229-4.827
			c0.245-1.602-0.862-2.754-4.112-1.423c0,0,0.426-3.062,3.142-6.943c2.716-3.881,7.864-8.189,9.962-9.702
			c2.598-1.874,3.49-4.27,2.844-5.562c-0.648-1.294-3.494-1.423-5.434,0.774c0,0,1.81-5.432,5.173-7.76c0,0-2.456-0.518-3.363-2.458
			c0,0,3.754,0.128,6.34-1.296c2.586-1.423,9.314-5.69,11.905-5.818c0,0-2.07-1.037-5.308,0.128c0,0,4.952-5.954,12.55-7.116
			c7.596-1.159,14.354,0.907,17.461-0.516c0,0-1.421-1.812-4.783-1.812c0,0,4.136-2.457,6.728-2.457c0,0-1.271-1.492-3.241-2.721
			h-3.845c0.496,0.498,0.809,0.85,0.809,0.85c-1.419,0.495-4.875,2.736-4.875,2.736s-6.951-0.747-13.77,1.689
			c-6.82,2.435-12.419,10.15-12.419,10.15s-2.337,2.074-5.26,3.048c-2.923,0.973-7.112,1.371-7.112,1.371
			c0.34,2.154,2.569,4.903,2.569,4.903s-2.079,2.688-3.103,6.048c-1.024,3.361-0.834,6.913-0.834,6.913
			c-4.873,4.185-8.518,9.647-9.201,13.007c-0.682,3.36,0.731,5.747,0.731,5.747c-1.071,0.097-2.768-0.234-2.768-0.234
			c-0.038,4.249,2.84,7.523,2.84,7.523s-3.139,4.012-4.308,5.714c-1.171,1.705-5.326,8.906-5.326,8.906
			c-1.38,1.063-8.553,7.243-8.553,7.243s-4.043,1.337-5.216,1.677c-1.167,0.339-3.897,0.976-6.331,2.582
			c-2.435,1.606-9.539,9.034-9.539,9.034c-2.522-0.17-7.36-1.387-11.479-4.26c-4.118-2.877-6.693-9.4-7.522-12.664
			C4.442,79.036,3.33,74.775,0,70.139v7.293c0.521,1.239,0.965,2.557,1.33,3.989C2.439,85.751,3.951,92.1,10.399,97.439z"/>
		<path fill="#FFFFFF" d="M160.059,28.411c0,0-0.838-1.045-0.629-1.568c0.209-0.521,1.672-2.509,1.672-2.509
			c-1.672-0.105-4.078-1.672-5.229-1.672c-1.147,0-5.226,0.941-5.226,0.941s3.973,0.834,5.018,1.567S160.059,28.411,160.059,28.411z
			"/>
		<path fill="#FFFFFF" d="M54.021,126.473c0.278-0.347,4.935-6.093,12.252-10.498c7.16-4.311,14.267-8.338,22.6-10.994
			c-3.358,0.321-8.51,1.578-15.227,4.42c-10.102,4.277-15.91,9.791-15.91,9.791s0.746-2.914,9.475-10.664l-0.091,0.056
			c-11.934,5.433-16.92,17.505-17.008,17.694c-1.031,2.104-3.316,6.723-5.16,9.723h4.176c1.387-2,3.368-6.408,3.368-6.408
			s2.032,1.096,2.666,1.534c0.633,0.437,0.585,1.019,0.339,1.457C55.289,132.968,53.824,135,52.68,136h4.723
			c0.93-1,1.759-2.086,2.022-2.826C59.988,131.598,60.477,129.038,54.021,126.473z"/>
		<path fill="#FFFFFF" d="M22.299,110.736c0.129-0.42,0.254-0.829,0.374-1.217c-4.201-0.791-13.198-3.266-17.411-6.94
			C2.934,100.548,1.241,98.518,0,96.343v6.134c0.229,0.277,0.463,0.557,0.71,0.838c5.456,6.236,17.541,8.916,17.541,8.916
			c-0.627,2.535-0.981,11.881-1.078,14.756c-0.097,2.875-0.926,6.425-1.9,9.149c-0.007,0.022-0.017-0.137-0.024-0.137h3.866
			c0.85-2,1.515-5.231,1.76-9.422C21.262,119.98,21.262,114.102,22.299,110.736z"/>
		<path fill="#FFFFFF" d="M115.698,37.695c9.224,0.969,17.875,7.943,17.875,7.943s-5.111-8.641-16.618-10.739
			c-11.512-2.098-19.143,5.291-19.143,5.291S106.475,36.726,115.698,37.695z"/>
		<path fill="#FFFFFF" d="M200,60.986v-0.24c-0.055,0.036-0.087,0.057-0.087,0.057S199.947,60.872,200,60.986z"/>
		<path fill="#FFFFFF" d="M151.79,9.059c1.292,2.07,0.517,3.234,0.517,3.234s5.562,2.329,7.504,3.364
			c1.943,1.034,2.719,3.364,2.979,4.14c0.257,0.774,1.55,2.975,2.583,3.363c1.032,0.389,6.726,2.846,9.833,4.785
			c3.105,1.942,6.077,4.658,6.077,4.658s-2.972,1.682-3.621,3.105c-0.644,1.424-1.938,8.279-7.5,10.09c0,0,1.68-2.846,0.387-5.69
			c0,0-6.596-0.39-11.254,2.456c0,0-0.845,5.569,2.132,7.121c2.977,1.552,6.407-3.109,6.792-4.145c0,0-0.095,2.619,0,4.385
			c0.024,0.167,0.774-0.035,0.792,0.125c0.192,1.866-0.146,4.545-0.146,4.545s2.199-1.682,5.824-1.035
			c3.623,0.646,4.524,1.813,5.691,1.813c1.165,0,3.493-1.553,4.27-2.331c0.774-0.775,2.072-1.293,3.234-0.906
			c1.162,0.389,1.809,2.199,1.809,2.199s4.399,0.389,5.826,0.131c1.18-0.216,3.34,0.818,4.482,1.545v-4.193
			c-1.781-0.771-3.548-1.018-4.669-0.952c-1.656,0.097-3.449-0.01-3.449-0.01c-0.38-0.644-1.86-2.134-3.955-2.474
			c-2.092-0.341-4.431,0.876-5.212,1.558c-0.777,0.682-2.324,1.667-2.324,1.667s-1.572-0.692-3.668-1.278
			c-2.094-0.584-4.723-0.533-4.723-0.533v-1.019c0,0,3.311-1.178,5.357-4.197c2.045-3.02,3.439-7.254,3.439-7.254
			c1.027-1.554,5.319-4.922,5.319-4.922s-4.209-4.04-7.326-6.38c-3.118-2.338-9.872-5.358-10.552-5.602
			c-0.682-0.242-1.406-0.729-1.823-1.406c-0.415-0.678-0.749-1.759-1.09-2.636c-0.339-0.876-1.991-2.971-3.599-3.847
			c-1.61-0.876-5.709-2.6-5.709-2.6c-0.886-4.497-5.103-6.12-7.586-6.899c-1.646-0.516-5.428-1.758-8.912-3.033h-8.832
			c2.047,1.217,4.602,2.507,7.517,3.496C145.839,6.084,150.496,6.989,151.79,9.059z"/>
		<path fill="#FFFFFF" d="M105.688,50.233c4.683-2.284,10.916-4.393,19.109-3.184c0,0-11.664-4.896-22.701,0.963
			c-11.035,5.857-16.318,9.005-27.457,9.401c0,0,6.363,2.914,14.461,0.998C96.769,56.596,101.6,52.229,105.688,50.233z"/>
		<path fill="#FFFFFF" d="M126.527,0h-0.793c0.414,0.118,0.783,0.248,1.088,0.392C126.822,0.392,126.699,0.248,126.527,0z"/>
		<path fill="#FFFFFF" d="M93.881,132.484c-3.069-2.286-6.915-1.457-8.28-0.922c-1.361,0.537-3.214,1.61-4.258,1.652
			c-1.039,0.043-4.483-0.804-4.483-0.804c1.192-1.077,3.919-3.343,6.159-4.461c2.245-1.12,4.919-1.798,7.063-2.575
			c2.143-0.779,5.796-2.825,7.109-4.48c1.317-1.652,2.875-6.621,3.362-9.151c0.487-2.533,0.082-4.103,0.082-4.103
			c0.954-0.104,7.469-0.722,11.168-2.425c3.701-1.702,14.035-7.428,14.035-7.428c4.833,2.899,6.199,7.069,6.199,7.069
			c4.458-0.066,10-2.58,10-2.58c3.641,2.658,14.77,5.766,20.516,5.812c5.744,0.054,11.277,2.306,11.277,2.306
			s1.531,3.153,4.793,4.76c3.264,1.604,8.279,1.166,8.279,1.166c1.218,0.97,3.848,2.244,6.283,1.511
			c2.436-0.731,3.369-2.509,3.369-2.509s1.814,0.205,3.443-0.783v-7.818c-0.327,0.088-0.666,0.137-0.993,0.137
			c0,0,0.392,3.621-0.905,4.528c-1.295,0.9-3.75-0.393-3.75-0.393s-0.131,2.588-2.07,3.235c-1.941,0.648-4.272-1.682-4.272-1.682
			s-4.526,0.777-7.629-0.646c-3.103-1.422-3.754-4.269-3.754-4.269s-5.044-2.327-9.96-2.847c-4.207-0.443-13.307-0.909-21-4.573
			c3.193-1.886,7.893-4.836,11.579-7.874c3.548-2.922,6.737-6.059,8.815-8.204c2.321,2.107,5.774,4.983,8.623,6.293
			c4.788,2.201,8.282,3.106,9.836,3.363c1.549,0.26,2.715,1.94,3.104,2.847c0.385,0.906,1.941,2.33,3.752,2.2
			c1.811-0.128,4.141-1.165,6.206,0c0.864,0.485,1.704,1.197,2.419,1.981v-4.771c-1.659-1.098-2.911-1.304-4.182-1.399
			c-1.948-0.144-4.92,0.586-4.92,0.586c-0.976-2.92-3.652-4.433-4.871-4.773c-1.215-0.339-3.555-0.633-8.18-2.533
			c-4.632-1.898-9.309-6.439-9.309-6.439c1.115-1.178,5.896-7.879,6.529-8.805c0.634-0.925,1.301-1.317,1.301-1.317
			s3.035,2.341,5.809,2.536c2.779,0.195,6.621-0.742,6.621-0.742s4.096,2.009,7.357,0.938c1.859-0.611,3.111-2.221,3.843-3.494
			v-5.38c-0.842,0.527-2.026,0.755-2.026,0.755s-0.908,3.491-2.589,4.399c-1.683,0.904-6.469-1.036-6.469-1.036
			s-2.847,1.036-6.079,0.905c-3.234-0.128-5.046-2.586-5.046-2.586s-2.457-0.388-4.397,1.293c-1.938,1.682-5.951,9.055-9.961,12.675
			c0,0-11.074,11.165-21.087,16.56c0,0-4.653,2.201-8.28,2.72c0,0-2.847-5.435-8.533-7.116c0,0-12.059-4.614-29.49-0.984
			c0,0,16.587-1.213,24.887,3.582c-3.781,2.1-8.953,4.871-11.695,5.94c-4.66,1.812-10.738,1.685-13.064,2.069
			c0,0,1.16,4.143,1.033,5.435c-0.129,1.293-1.423,7.763-3.621,9.571c-2.198,1.812-7.895,3.621-10.866,4.658
			c-2.977,1.035-9.576,4.976-11.644,10.668c0,0,4.098,1.271,7.132,1.271h5.736c0.892,0,1.706-0.57,2.396-0.886
			c1.426-0.646,3.231-1.134,5.176,0.03c0.485,0.291,0.905,0.854,1.269,0.854h4.546C96.55,135,95.394,133.614,93.881,132.484z"/>
		<path fill="#FFFFFF" d="M108.282,57.91c11.868-4.456,24.356-2.002,28.049,1.967c4.593,4.942,1.299,9.45,1.299,9.45
			c4.772-0.994,18.3-5.936,25.672-11.888c0,0-5.333-2.849-9.179-3.063c-3.441-0.189-5.551,3.563-5.785,7.274
			c-2.764,1.689-6.719,2.476-6.719,2.476c0.004-0.022,0.005-0.046,0.013-0.07c0.091-0.603,0.579-5.039-4.821-7.811
			C131.159,53.343,120.15,51.484,108.282,57.91z"/>
		<path fill="#006DB0" d="M82.712,124.061c2.972-1.037,8.668-2.847,10.866-4.658c2.198-1.809,3.492-8.278,3.621-9.571
			c0.127-1.292-1.033-5.435-1.033-5.435c2.326-0.386,8.404-0.258,13.064-2.069c2.742-1.069,7.914-3.841,11.695-5.94
			c-8.299-4.794-24.887-3.582-24.887-3.582c17.432-3.63,29.49,0.984,29.49,0.984c5.688,1.682,8.533,7.115,8.533,7.115
			c3.627-0.518,8.28-2.719,8.28-2.719c10.015-5.395,21.087-16.56,21.087-16.56c4.01-3.621,8.021-10.994,9.961-12.675
			c1.94-1.681,4.397-1.293,4.397-1.293s1.812,2.458,5.046,2.586c3.232,0.131,6.079-0.905,6.079-0.905s4.786,1.94,6.469,1.036
			c1.681-0.908,2.589-4.399,2.589-4.399s1.186-0.228,2.026-0.755v-4.236c-0.054-0.115-0.087-0.183-0.087-0.183
			s0.033-0.021,0.087-0.057V56.01c-1.144-0.727-3.304-1.761-4.483-1.545c-1.425,0.258-5.824-0.131-5.824-0.131
			s-0.647-1.811-1.81-2.199c-1.164-0.387-2.46,0.131-3.233,0.906c-0.777,0.777-3.105,2.331-4.271,2.331
			c-1.167,0-2.069-1.167-5.692-1.813s-5.822,1.035-5.822,1.035s0.338-2.679,0.146-4.545c-0.019-0.16-0.767,0.042-0.792-0.125
			c-0.095-1.766,0-4.385,0-4.385c-0.385,1.035-3.816,5.696-6.792,4.145c-2.978-1.552-2.132-7.121-2.132-7.121
			c4.658-2.846,11.254-2.456,11.254-2.456c1.293,2.844-0.387,5.69-0.387,5.69c5.562-1.811,6.855-8.667,7.5-10.09
			c0.65-1.423,3.621-3.105,3.621-3.105s-2.971-2.716-6.077-4.658c-3.106-1.939-8.8-4.396-9.833-4.785
			c-1.033-0.388-2.326-2.588-2.583-3.363c-0.259-0.775-1.035-3.105-2.979-4.14c-1.94-1.035-7.504-3.364-7.504-3.364
			s0.776-1.164-0.516-3.234c-1.294-2.069-5.951-2.975-13.585-5.562c-2.915-0.989-5.47-2.279-7.517-3.496h-4.162
			c0.172,0.248,0.295,0.392,0.295,0.392c-0.305-0.144-0.674-0.274-1.088-0.392h-6.031c1.97,1.229,3.24,2.721,3.24,2.721
			c-2.59,0-6.727,2.457-6.727,2.457c3.362,0,4.783,1.812,4.783,1.812c-3.107,1.423-9.866-0.643-17.461,0.516
			c-7.598,1.162-12.55,7.116-12.55,7.116c3.237-1.165,5.308-0.128,5.308-0.128c-2.591,0.128-9.319,4.396-11.905,5.818
			c-2.586,1.424-6.34,1.296-6.34,1.296c0.908,1.94,3.363,2.458,3.363,2.458c-3.363,2.328-5.173,7.76-5.173,7.76
			c1.94-2.198,4.786-2.069,5.434-0.774c0.646,1.293-0.246,3.689-2.844,5.562c-2.099,1.513-7.246,5.821-9.962,9.702
			c-2.716,3.881-3.142,6.943-3.142,6.943c3.25-1.332,4.357-0.179,4.112,1.423c-0.433,2.714-5.229,4.827-5.229,4.827
			c1.162,1.94,5.552,2.071,5.552,2.071s-5.176,5.692-7.244,8.797c-2.072,3.105-5.565,9.312-6.212,10.221
			c-0.646,0.904-8.276,6.986-9.185,7.891c-0.903,0.904-8.666,2.847-10.607,3.752c-1.939,0.906-8.537,7.111-10.734,9.958
			c-0.134,0.174-0.26,0.344-0.384,0.513c-3.142-0.223-10.451-1.177-15.397-5.271C3.951,92.1,2.439,85.751,1.33,81.421
			c-0.365-1.435-0.81-2.75-1.33-3.989v18.911c1.241,2.175,2.934,4.205,5.262,6.236c4.213,3.675,13.21,6.149,17.411,6.94
			c-0.12,0.389-0.245,0.797-0.374,1.217c-1.038,3.363-1.038,9.244-1.424,15.842c-0.246,4.189-0.91,7.422-1.76,9.422h25.838
			c1.843-3,4.129-7.617,5.16-9.723c0.088-0.189,5.074-12.361,17.008-17.795l0.091-0.006c-8.729,7.75-9.475,10.689-9.475,10.689
			s5.809-5.5,15.91-9.777c6.717-2.843,11.868-4.093,15.227-4.414c-8.333,2.655-15.44,6.688-22.6,10.996
			c-7.317,4.406-11.974,10.154-12.252,10.5c6.456,2.565,5.967,5.127,5.404,6.702c-0.263,0.74-1.092,1.827-2.022,2.827H78.2
			c-3.034,0-7.132-1.271-7.132-1.271C73.136,129.036,79.735,125.096,82.712,124.061z M155.872,22.662
			c1.151,0,3.558,1.567,5.229,1.672c0,0-1.463,1.987-1.672,2.509c-0.209,0.523,0.629,1.568,0.629,1.568s-3.35-2.507-4.395-3.241
			c-1.045-0.732-5.018-1.567-5.018-1.567S154.723,22.662,155.872,22.662z M141.633,64.056c-0.007,0.024-0.009,0.048-0.013,0.07
			c0,0,3.955-0.787,6.719-2.476c0.233-3.711,2.343-7.463,5.785-7.274c3.845,0.215,9.179,3.063,9.179,3.063
			c-7.373,5.952-20.898,10.894-25.672,11.888c0,0,3.294-4.508-1.299-9.45c-3.693-3.97-16.18-6.423-28.049-1.967
			c11.869-6.426,22.877-4.566,28.529-1.665C142.212,59.017,141.725,63.453,141.633,64.056z M116.956,34.899
			c11.506,2.099,16.618,10.739,16.618,10.739s-8.651-6.974-17.875-7.943c-9.225-0.969-17.885,2.495-17.885,2.495
			S105.443,32.801,116.956,34.899z M74.64,57.414c11.139-0.396,16.422-3.544,27.458-9.401c11.036-5.859,22.7-0.963,22.7-0.963
			c-8.194-1.209-14.427,0.9-19.11,3.184c-4.088,1.996-8.917,6.363-16.585,8.179C81.003,60.327,74.64,57.414,74.64,57.414z"/>
		<path fill="#006DB0" d="M86.332,135.114c-0.689,0.313-1.504,0.886-2.396,0.886h8.84c-0.364,0-0.784-0.564-1.269-0.855
			C89.563,133.98,87.758,134.469,86.332,135.114z"/>
		<path fill="#006DB0" d="M197.581,98.836c-2.063-1.165-4.396-0.128-6.206,0c-1.812,0.13-3.368-1.293-3.752-2.2
			c-0.389-0.905-1.555-2.587-3.104-2.847c-1.554-0.256-5.047-1.162-9.836-3.363c-2.849-1.311-6.302-4.187-8.623-6.293
			c-2.078,2.145-5.269,5.282-8.815,8.204c-3.687,3.038-8.386,5.988-11.579,7.874c7.693,3.665,16.793,4.13,21,4.573
			c4.916,0.521,9.96,2.847,9.96,2.847s0.651,2.846,3.754,4.27c3.103,1.423,7.629,0.646,7.629,0.646s2.331,2.33,4.272,1.681
			c1.939-0.646,2.07-3.234,2.07-3.234s2.455,1.293,3.75,0.393c1.295-0.908,0.905-4.527,0.905-4.527c0.328,0,0.666-0.049,0.993-0.139
			v-5.9C199.285,100.033,198.445,99.32,197.581,98.836z"/>
	</g>
</g>
</svg>
