<?xml version="1.0" encoding="utf-8"?>
<!-- Generator: Adobe Illustrator 16.0.3, SVG Export Plug-In . SVG Version: 6.00 Build 0)  -->
<!DOCTYPE svg PUBLIC "-//W3C//DTD SVG 1.1//EN" "http://www.w3.org/Graphics/SVG/1.1/DTD/svg11.dtd">
<svg version="1.1" id="PILLS" xmlns="http://www.w3.org/2000/svg" xmlns:xlink="http://www.w3.org/1999/xlink" x="0px" y="0px"
	 width="200px" height="136px" viewBox="0 0 200 136" enable-background="new 0 0 200 136" xml:space="preserve">
<path fill="#00295B" d="M200,128c0,4.418-3.582,8-8,8H8c-4.418,0-8-3.582-8-8V8c0-4.418,3.582-8,8-8h184c4.418,0,8,3.582,8,8V128z"
	/>
<g>
	<path fill="none" d="M84.022,11.071c0.717-1.103,1.457-2.182,2.235-3.196C88.451,5.022,90.899,2.392,93.572,0H8
		C3.582,0,0,3.582,0,8v36.351C18.72,32.45,49.002,16.537,83.685,11.136C83.685,11.136,83.921,11.09,84.022,11.071z"/>
	<path fill="none" d="M200,24.118V8c0-4.418-3.582-8-8-8h-9.059C191.939,7.996,197.077,16.822,200,24.118z"/>
	<path fill="none" d="M109.257,130.77l0.246-0.571c0.507-1.181,0.738-1.724,0.738-3.624c0-0.762-0.159-1.436-0.421-2.028
		c-1.088-1.229-1.952-1.95-3.004-2.799c0,0-1.592-1.329-1.596-1.331c0,0-0.209-0.189-0.24-0.217
		c-0.976,1.299-2.061,2.472-3.256,3.499l-7.047,6.055l-2.333-3.175c0,0-3.17-4.312-3.155-4.297
		c-0.08-0.106-8.261-10.903-25.257-22.271C50.596,91.094,29.298,80.248,0,75.473v52.926C0,132.818,3.582,136,8,136h98.366
		l1.133-1.875C107.512,134.105,108.652,132.213,109.257,130.77z"/>
	<path fill="none" d="M183.555,85.055c0.496,3.301,0.762,6.541,0.762,9.661c0,1.729-0.08,3.474-0.239,5.196l-0.181,1.912
		l-0.136,1.404c0,0-4.647,4.028-5.899,5.168c-2.426,11.537-6.219,21.604-9.199,27.604H192c4.418,0,8-3.182,8-7.602V66.721
		C197.188,72.936,192.654,79.994,183.555,85.055z"/>
	<path fill="#FFFFFF" d="M200,37.631V24.118C197.077,16.822,191.939,7.996,182.941,0h-5.711
		C190.748,10.547,197.864,24.438,200,37.631z"/>
	<path fill="#FFFFFF" d="M183.761,103.229l0.136-1.404l0.181-1.912c0.159-1.723,0.239-3.467,0.239-5.196
		c0-3.12-0.266-6.36-0.762-9.661c9.1-5.061,13.633-12.119,16.445-18.333V54.569c-0.516,2.979-1.309,5.798-2.357,8.389
		c-2.926,7.211-7.455,15.034-18.125,20.08c0.701,3.687,1.149,7.632,1.149,11.679c0,1.602-0.072,3.221-0.22,4.852l-0.182,1.91
		c0,0-4.268,3.676-5.733,5.02c-2.53,12.663-6.83,23.504-9.896,29.504h4.024c2.979-6,6.774-16.066,9.198-27.604
		C179.113,107.258,183.761,103.229,183.761,103.229z"/>
	<path fill="#FFFFFF" d="M112.623,132.175c0.688-1.649,1.268-2.61,1.268-5.602c0-1.313-0.256-2.707-0.953-4.003
		c-2.062-2.455-3.465-3.282-5.31-4.896c-1.353-1.192-2.474-2.183-3.466-3.087c-1.074,2.186-2.6,4.434-4.819,6.344l-4.06,3.486
		l-3.171-4.314C91.807,119.691,63.252,81.803,0,71.771v3.703c29.298,4.773,50.596,15.621,63.93,24.537
		c16.997,11.367,25.177,22.163,25.257,22.271c-0.016-0.015,3.155,4.297,3.155,4.297l2.333,3.175l7.048-6.055
		c1.195-1.027,2.28-2.2,3.256-3.499c0.031,0.026,0.24,0.217,0.24,0.217c0.004,0.002,1.596,1.331,1.596,1.331
		c1.053,0.848,1.916,1.568,3.004,2.799c0.262,0.594,0.42,1.268,0.42,2.028c0,1.901-0.23,2.444-0.737,3.624l-0.246,0.57
		c-0.604,1.444-1.746,3.338-1.758,3.356L106.366,136h4.905l-0.569-0.12C110.702,135.88,111.938,133.824,112.623,132.175z"/>
	<path fill="#FFFFFF" d="M86.241,14.365c0.891-1.471,1.861-2.902,2.907-4.264C92.163,6.18,95.572,2.831,99.255,0h-5.683
		c-2.673,2.392-5.122,5.022-7.315,7.875c-0.778,1.014-1.518,2.093-2.235,3.196c-0.101,0.02-0.337,0.065-0.337,0.065
		C49.002,16.537,18.72,32.45,0,44.351v4.333C18.213,36.87,48.938,20.238,84.264,14.735C84.659,14.673,85.34,14.546,86.241,14.365z"
		/>
	<path fill="#C6A876" d="M180.266,101.479l0.182-1.91c0.148-1.631,0.22-3.25,0.22-4.853c0-4.047-0.448-7.993-1.149-11.679
		c10.67-5.045,15.199-12.868,18.125-20.08c1.049-2.591,1.842-5.41,2.357-8.389V37.631C197.864,24.438,190.748,10.547,177.23,0
		h-8.319c8.579,5,16.563,12.963,21.771,25.546c10.774,26.031-0.182,46.673-12.09,53.281c-1.096,0.604-2.195,1.094-3.291,1.461
		c-0.455,0.155-0.912,0.285-1.363,0.394c0.268,1.104,0.5,2.248,0.722,3.407c0.106,0.57,0.208,1.144,0.302,1.724
		c0.003,0.062,0.012,0.117,0.025,0.181c0.238,1.518,0.418,3.082,0.55,4.668c0.022,0.299,0.05,0.598,0.063,0.903
		c0.021,0.334,0.033,0.683,0.051,1.025c0.018,0.4,0.031,0.803,0.041,1.207c0.002,0.305,0.007,0.61,0.007,0.918
		c0,0.475-0.005,0.953-0.023,1.426c-0.006,0.248-0.013,0.506-0.021,0.754c-0.033,0.733-0.08,1.467-0.15,2.203l-5.51,4.815
		c-2.65,14.394-7.85,26.087-10.87,32.087h5.515c3.064-6,7.364-16.841,9.895-29.504C175.999,105.152,180.266,101.479,180.266,101.479
		z"/>
	<path fill="#C6A876" d="M117.223,120.042c-0.738-1.323-4.873-4.798-8.355-7.888l-0.018-0.104c0,0-0.127-0.067-0.348-0.217
		c-0.75-0.658-4.581-4.409-5.409-5.574c-1.938-2.79-3.884-6.692-4.937-12.005c0,0-2.111,7.398,2.71,15.288
		c-0.788,2.446-2.184,5.42-4.76,7.632c0,0-25.2-41.912-94.71-56.34c0,0,32.167-30.072,81.878-40.816
		c-0.504,1.14-0.971,2.295-1.392,3.469c-5.788,16.069-3.74,35.366,8.313,49.774c12.368,14.778,38.106,16.54,47.534,0.64
		c0.629-1.063,1.187-2.213,1.664-3.434c6.508-16.767-6.707-29.752-17.597-28.833c13.556,6.921,9.86,19.846,4.347,24.071
		c-5.879,4.503-15.349,3.984-21.166-4.039c-12.015-16.549-1.836-36.796,14.981-43.545c9.996-4.003,22.328-3.25,33.746,5.892
		c10.737,8.591,13.374,21.791,10.979,30.321c-0.121,0.433-0.262,0.857-0.414,1.268c-0.012,0.049-0.033,0.096-0.049,0.146
		c-0.48,1.279-1.09,2.417-1.811,3.396c-0.25,0.335-0.498,0.445-0.77,0.734c-0.111,0.116-0.221,0.121-0.33,0.121h-0.004
		c-0.223,1-0.44,0.678-0.686,0.9c0,0,2.477,2.761,4.436,5.516c2.947,4.144,3.389,5.739,4.678,6.336
		c0.201,0.085,0.424,0.247,0.654,0.247h0.006c0.231,0,0.474,0.068,0.735,0.068c1.366,0,3.155-0.6,5.101-2.023
		c2.305-1.684,5.729-5.908,7.113-8.787c1.028-2.138,4.082-8.96,4.239-19.105c-3.255-21.039-15.608-35.189-32.608-42.167
		c-0.859-0.353-1.748-0.677-2.648-0.985h-39.812c-6.261,1.979-12.217,4.939-17.387,8.983c0,0,3.929-4.613,10.964-8.983h-6.836
		C95.572,2.83,92.163,6.179,89.148,10.1c-1.046,1.362-2.016,2.793-2.907,4.264c-0.901,0.181-1.582,0.308-1.978,0.37
		C48.938,20.238,18.213,36.87,0,48.685v23.086c63.252,10.031,91.807,47.922,92.112,48.332l3.171,4.315l4.06-3.487
		c2.22-1.908,3.745-4.156,4.819-6.343c0.992,0.904,2.113,1.896,3.466,3.087c1.845,1.613,3.247,2.44,5.31,4.895
		c0.697,1.297,0.953,2.69,0.953,4.004c0,2.992-0.58,3.951-1.268,5.602c-0.686,1.648-1.921,3.705-1.921,3.705l0.569,0.12h9.437
		l-3.647-1.798C117.059,134.202,120.964,126.761,117.223,120.042z"/>
	<path fill="#002A5C" d="M136.898,118.746c-2.183,0.917-6.858,3.333-8.879,4.566c1.979,3.445,4.528,6.688,3.002,12.688h5.938
		c0.323,0,0.641-1.404,0.909-2.217C140.246,126.62,139.105,121.794,136.898,118.746z M133.846,134.574
		c-0.13-2.781,0.367-7.946-1.504-9.637c0.176-0.849,2.621-1.023,2.621-1.023C136.693,130.052,134.002,133.993,133.846,134.574z"/>
	<path fill="#002A5C" d="M175.505,99.1c0.07-0.738,0.117-1.471,0.149-2.203c0.009-0.25,0.015-0.506,0.021-0.754
		c0.02-0.474,0.023-0.951,0.023-1.427c0-0.308-0.004-0.612-0.008-0.918c-0.008-0.403-0.021-0.807-0.041-1.207
		c-0.017-0.343-0.028-0.69-0.051-1.026c-0.013-0.306-0.041-0.604-0.062-0.902c-0.13-1.587-0.312-3.15-0.549-4.668
		c-0.014-0.064-0.023-0.118-0.026-0.18c-0.095-0.58-0.194-1.154-0.302-1.725c-0.221-1.158-0.454-2.303-0.721-3.406
		c0.451-0.109,0.906-0.238,1.362-0.395c1.095-0.367,2.195-0.857,3.291-1.461c11.908-6.608,22.864-27.25,12.091-53.281
		C185.477,12.963,177.49,5,168.912,0h-6.096c10.543,6.109,20.869,17.306,23.684,31.439c0.783,3.938,1.089,7.578,1.089,10.884
		c-0.005,0.222-0.005,0.436,0,0.642c0,0.062-0.005,0.123-0.005,0.188l0,0c-0.157,10.146-3.211,16.967-4.238,19.105
		c-1.386,2.879-4.81,7.104-7.115,8.787c-1.944,1.424-3.733,2.023-5.1,2.023c-0.262,0-0.504-0.068-0.734-0.068h-0.006
		c-0.231,0-0.453-0.105-0.656-0.193c-1.289-0.596-1.729-2.137-4.676-6.28c-1.959-2.755-4.437-5.627-4.437-5.627
		c0.244-0.222,0.463,0.1,0.687-0.9h0.004c0.108,0,0.217-0.005,0.328-0.121c0.272-0.289,0.521-0.51,0.771-0.845
		c0.721-0.979,1.33-2.06,1.812-3.34c0.016-0.05,0.037-0.07,0.047-0.119c0.153-0.411,0.295-0.821,0.414-1.254
		c2.395-8.531-0.242-21.723-10.979-30.314c-11.418-9.142-23.75-9.891-33.746-5.888c-16.818,6.749-26.997,26.998-14.98,43.547
		c5.816,8.023,15.285,8.542,21.164,4.04c5.516-4.226,9.211-17.15-4.346-24.071c10.889-0.919,24.104,12.066,17.596,28.833
		c-0.477,1.22-1.035,2.37-1.662,3.435c-0.559,1.113-1.198,2.233-1.94,3.355c-10.966,16.503-43.568,15.463-55.483-10.91
		c-9.82-21.75-1.881-37.54,1.576-42.86c0.421-1.174,0.888-2.329,1.392-3.469C33.563,30.762,1.396,60.834,1.396,60.834
		c69.511,14.428,94.71,56.34,94.71,56.34c2.576-2.212,3.972-5.186,4.76-7.632c-4.821-7.89-2.71-15.288-2.71-15.288
		c1.053,5.312,2.998,9.215,4.937,12.005c0.828,1.166,4.658,4.917,5.409,5.574c0.221,0.147,0.348,0.217,0.348,0.217l0.018,0.104
		c3.484,3.09,7.619,6.564,8.355,7.888c3.741,6.719-0.164,14.16-0.164,14.16l3.648,1.798h8.137c-2.177-1-5.426-2.785-5.431-2.791
		c0.764-2.58,1.433-6.042,0.539-10.952c-0.142-0.831-1.101-3.317-1.786-4.261c3.91-4.329,10.607-7.987,13.631-9.694
		c4.438,1.052,15.207,6.915,20.094,15.743c4.717-10.352,4.938-19.591,4.887-24.456l3.332-3.093
		c1.422-17.938-10.812-33.186-10.812-33.186s16.688,13.297,16.196,33.284l-3.818,3.234c-2.033,15.354-8.893,30.172-11.71,36.172
		h5.157c3.021-6,8.221-17.693,10.872-32.086L175.505,99.1z M157.32,97.639c0,0,0.066,0.621-0.192,1.346
		c-0.04,0.102-0.075,0.201-0.123,0.302c-0.801,0.325-2.149,0.03-2.672-1.226c1.465,0.86,2.601-0.059,2.901-0.34
		C157.29,97.669,157.32,97.639,157.32,97.639z M153.625,86.434c1.835,2.336,2.805,4.719,3.271,6.907
		c-0.069-0.006-0.138-0.021-0.207-0.021c-2.181,0-3.938,1.66-3.938,3.837c0,2.18,1.758,3.844,3.938,3.844c0,0,0.008,0,0.015,0
		c-0.249,1-0.483,1.574-0.483,1.574c-3.494,0-6.326-2.779-6.326-6.269c0-2.432,1.375-4.509,3.375-5.57
		C153.775,88.736,153.625,86.434,153.625,86.434z"/>
	<path fill="#002A5C" d="M150.626,128.477c-0.39-0.963-1.397-1.67-2.651-1.625c-0.85,0.026-1.552,0.336-2.188,1.028
		c-1.225,1.343-1.211,3.146-0.241,5.386c0.608-0.418,1.114-1.152,1.488-1.625c0.133,0.84,0.308,1.479-0.093,2.555
		c-0.262,0.709-0.607,1.805-1.019,1.805h3.47C150.507,134,151.811,131.385,150.626,128.477z"/>
	<path fill="#FFFFFF" d="M187.584,43.153L187.584,43.153c0-0.065,0.005-0.125,0.005-0.188c-0.005-0.206-0.005-0.419,0-0.642
		c0-3.306-0.307-6.946-1.089-10.884C183.686,17.306,173.357,6.109,162.814,0h-10.488c0.902,0.309,1.789,0.633,2.648,0.985
		C171.977,7.963,184.329,22.114,187.584,43.153z"/>
	<path fill="#FFFFFF" d="M95.128,8.983c5.17-4.044,11.125-7.004,17.388-8.983h-6.424C99.057,4.371,95.128,8.983,95.128,8.983z"/>
	<path fill="#FFFFFF" d="M132.341,124.938c1.871,1.69,1.375,6.855,1.503,9.637c0.157-0.582,2.85-4.522,1.118-10.66
		C134.962,123.914,132.518,124.089,132.341,124.938z"/>
	<path fill="#FFFFFF" d="M90.195,73.261c-12.053-14.408-14.101-33.705-8.313-49.774c-3.458,5.321-11.396,21.11-1.576,42.86
		c11.915,26.372,44.517,27.413,55.483,10.91c0.742-1.122,1.382-2.243,1.939-3.356C128.302,89.801,102.562,88.04,90.195,73.261z"/>
	<path fill="#FFFFFF" d="M149.895,96.355c0,3.49,2.832,6.219,6.328,6.219c0,0,0.233-0.574,0.482-1.574c-0.007,0-0.016,0-0.016,0
		c-2.18,0-3.938-1.664-3.938-3.844c0-2.178,1.758-3.889,3.938-3.889c0.07,0,0.139,0.041,0.207,0.047
		c-0.465-2.188-1.436-4.558-3.271-6.896c0,0,0.151,2.336-0.354,4.335C151.27,91.816,149.895,93.926,149.895,96.355z"/>
	<path fill="#FFFFFF" d="M154.333,98.062c0.522,1.254,1.871,1.551,2.672,1.225c0.048-0.102,0.083-0.2,0.123-0.301
		c0.258-0.726,0.192-1.348,0.192-1.348s-0.03,0.031-0.086,0.084C156.934,98.002,155.798,98.921,154.333,98.062z"/>
	<path fill="#FFFFFF" d="M169.494,96.596c0.492-19.986-16.196-33.284-16.196-33.284s12.233,15.25,10.812,33.188l-3.332,3.098
		c0.053,4.863-0.168,14.109-4.887,24.461c-4.887-8.828-15.656-14.678-20.094-15.729c-3.021,1.707-9.721,5.39-13.631,9.719
		c0.688,0.943,1.645,3.481,1.786,4.312c0.894,4.91,0.226,8.271-0.539,10.853c0.005,0.006,3.254,1.791,5.431,2.791h2.178
		c1.525-6-1.024-9.242-3.002-12.688c2.021-1.232,6.696-3.75,8.879-4.666c2.207,3.049,3.347,7.925,0.971,15.088
		c-0.27,0.812-0.586,2.268-0.909,2.268h8.961c0.411,0,0.757-1.09,1.019-1.798c0.4-1.076,0.227-1.81,0.093-2.649
		c-0.374,0.471-0.88,1.269-1.488,1.688c-0.97-2.241-0.983-3.993,0.241-5.336c0.636-0.692,1.338-0.939,2.188-0.967
		c1.254-0.045,2.262,0.568,2.651,1.533c1.185,2.908-0.119,5.529-1.235,7.529h4.576c2.816-6,9.676-20.818,11.709-36.172
		L169.494,96.596z"/>
</g>
</svg>
